<?xml version="1.0" encoding="UTF-8" standalone="no"?>
<svg
   xmlns:dc="http://purl.org/dc/elements/1.1/"
   xmlns:cc="http://creativecommons.org/ns#"
   xmlns:rdf="http://www.w3.org/1999/02/22-rdf-syntax-ns#"
   xmlns:svg="http://www.w3.org/2000/svg"
   xmlns="http://www.w3.org/2000/svg"
   xmlns:xlink="http://www.w3.org/1999/xlink"
   xmlns:sodipodi="http://sodipodi.sourceforge.net/DTD/sodipodi-0.dtd"
   xmlns:inkscape="http://www.inkscape.org/namespaces/inkscape"
   sodipodi:docname="earth.svg"
   inkscape:version="1.0.1 (3bc2e813f5, 2020-09-07)"
   id="svg8"
   version="1.1"
   viewBox="0 0 158.75 158.75"
   height="600"
   width="600">
  <defs
     id="defs2">
    <inkscape:path-effect
       effect="bspline"
       id="path-effect3560"
       is_visible="true"
       lpeversion="1"
       weight="33.333333"
       steps="2"
       helper_size="0"
       apply_no_weight="true"
       apply_with_weight="true"
       only_selected="false" />
    <inkscape:path-effect
       effect="bspline"
       id="path-effect3541"
       is_visible="true"
       lpeversion="1"
       weight="33.333333"
       steps="2"
       helper_size="0"
       apply_no_weight="true"
       apply_with_weight="true"
       only_selected="false" />
    <inkscape:perspective
       sodipodi:type="inkscape:persp3d"
       inkscape:vp_x="-3.7067528 : 75.769655 : 1"
       inkscape:vp_y="0 : 1000 : 0"
       inkscape:vp_z="155.04325 : 75.769655 : 1"
       inkscape:persp3d-origin="75.668247 : 49.311322 : 1"
       id="perspective1469" />
    <linearGradient
       inkscape:collect="always"
       id="linearGradient1180">
      <stop
         style="stop-color:#e4e4e4;stop-opacity:0.5756337"
         offset="0"
         id="stop1176" />
      <stop
         style="stop-color:#c1c1c1;stop-opacity:0"
         offset="1"
         id="stop1178" />
    </linearGradient>
    <inkscape:path-effect
       effect="bspline"
       id="path-effect1168"
       is_visible="true"
       lpeversion="1"
       weight="33.333333"
       steps="2"
       helper_size="0"
       apply_no_weight="true"
       apply_with_weight="true"
       only_selected="false" />
    <inkscape:path-effect
       effect="bspline"
       id="path-effect1028"
       is_visible="true"
       lpeversion="1"
       weight="33.333333"
       steps="2"
       helper_size="0"
       apply_no_weight="true"
       apply_with_weight="true"
       only_selected="false" />
    <inkscape:path-effect
       effect="bspline"
       id="path-effect1012"
       is_visible="true"
       lpeversion="1"
       weight="33.333333"
       steps="2"
       helper_size="0"
       apply_no_weight="true"
       apply_with_weight="true"
       only_selected="false" />
    <inkscape:path-effect
       effect="bspline"
       id="path-effect964"
       is_visible="true"
       lpeversion="1"
       weight="33.333333"
       steps="2"
       helper_size="0"
       apply_no_weight="true"
       apply_with_weight="true"
       only_selected="false" />
    <inkscape:path-effect
       effect="bspline"
       id="path-effect863"
       is_visible="true"
       lpeversion="1"
       weight="33.333333"
       steps="2"
       helper_size="0"
       apply_no_weight="true"
       apply_with_weight="true"
       only_selected="false" />
    <inkscape:path-effect
       effect="bspline"
       id="path-effect847"
       is_visible="true"
       lpeversion="1"
       weight="33.333333"
       steps="2"
       helper_size="0"
       apply_no_weight="true"
       apply_with_weight="true"
       only_selected="false" />
    <inkscape:path-effect
       effect="bspline"
       id="path-effect843"
       is_visible="true"
       lpeversion="1"
       weight="33.333333"
       steps="2"
       helper_size="0"
       apply_no_weight="true"
       apply_with_weight="true"
       only_selected="false" />
    <linearGradient
       inkscape:collect="always"
       xlink:href="#linearGradient1180"
       id="linearGradient1182"
       x1="80.1036"
       y1="38.870361"
       x2="82.177589"
       y2="30.975962"
       gradientUnits="userSpaceOnUse"
       gradientTransform="translate(2.3196241,0.25412145)" />
    <filter
       inkscape:label="Clouds"
       inkscape:menu="Overlays"
       inkscape:menu-tooltip="Airy, fluffy, sparse white clouds"
       style="color-interpolation-filters:sRGB;"
       id="filter1430">
      <feTurbulence
         numOctaves="3"
         baseFrequency="0.040 0.107"
         type="fractalNoise"
         id="feTurbulence1420" />
      <feColorMatrix
         result="result0"
         values="1 0 0 0 0 0 1 0 0 0 0 0 1 0 0 0 0 0 5 -2.7"
         id="feColorMatrix1422" />
      <feFlood
         flood-opacity="1"
         flood-color="rgb(255,255,255)"
         id="feFlood1424" />
      <feComposite
         operator="in"
         in2="result0"
         id="feComposite1426" />
      <feComposite
         operator="atop"
         in2="SourceGraphic"
         id="feComposite1428" />
    </filter>
  </defs>
  <sodipodi:namedview
     id="base"
     pagecolor="#ffffff"
     bordercolor="#666666"
     borderopacity="1.0"
     inkscape:pageopacity="0.0"
     inkscape:pageshadow="2"
     inkscape:zoom="0.7071068"
     inkscape:cx="236.42648"
     inkscape:cy="409.7185"
     inkscape:document-units="mm"
     inkscape:current-layer="layer1"
     inkscape:document-rotation="0"
     showgrid="false"
     units="px"
     showguides="true"
     inkscape:guide-bbox="true"
     inkscape:snap-nodes="false"
     inkscape:window-width="1920"
     inkscape:window-height="1050"
     inkscape:window-x="0"
     inkscape:window-y="0"
     inkscape:window-maximized="1" />
  <metadata
     id="metadata5">
    <rdf:RDF>
      <cc:Work
         rdf:about="">
        <dc:format>image/svg+xml</dc:format>
        <dc:type
           rdf:resource="http://purl.org/dc/dcmitype/StillImage" />
        <dc:title></dc:title>
      </cc:Work>
    </rdf:RDF>
  </metadata>
  <g
     inkscape:label="Layer 1"
     inkscape:groupmode="layer"
     id="layer1">
    <g
       id="g1051"
       transform="matrix(0.60679551,0.42645455,-0.42645455,0.60679551,64.997091,-0.82173438)">
      <path
         id="path833"
         style="fill:#38dce3;fill-opacity:0.995977;stroke:none;stroke-width:0;stroke-linecap:round;stroke-linejoin:bevel"
         d="M 307.52539,18.242188 A 277.05784,277.05784 0 0 0 30.46875,295.30078 277.05784,277.05784 0 0 0 307.52539,572.35742 277.05784,277.05784 0 0 0 584.58398,295.30078 277.05784,277.05784 0 0 0 307.52539,18.242188 Z"
         transform="scale(0.26458333)" />
      <path
         id="path833-3"
         style="fill:#3bff64;fill-opacity:0.995977;stroke:#655454;stroke-width:0.195458;stroke-linecap:round;stroke-linejoin:bevel;stroke-miterlimit:4;stroke-dasharray:none;stroke-opacity:1"
         d="M 81.366092,4.8265788 A 73.304886,73.304886 0 0 0 14.766023,47.505627 c 1.722591,1.227444 4.095335,2.922524 5.976896,4.314981 2.253972,1.66806 3.556922,2.722793 4.340304,3.439067 0.783382,0.716275 1.048196,1.093065 1.352372,2.088761 0.304175,0.995696 0.649715,2.61048 0.778763,3.474723 0.129048,0.864245 0.04234,0.981165 0.01447,1.143082 -0.02787,0.16192 0.0023,0.365718 -0.0186,0.576194 -0.02093,0.210473 -0.0923,0.429516 -0.156064,0.699698 -0.06376,0.270182 -0.120034,0.591016 -0.137975,1.166855 -0.01794,0.575839 0.0022,1.405742 -0.02377,1.929598 -0.026,0.523857 -0.0978,0.743088 -0.01344,1.304311 0.08437,0.561227 0.323466,1.462392 0.833025,2.427759 0.509558,0.965369 1.288433,1.994606 1.970939,2.725417 0.682506,0.730808 1.26792,1.164199 1.809708,1.656228 0.54179,0.49203 1.040569,1.042117 1.501717,1.336352 0.46115,0.294238 0.883382,0.335492 1.100709,0.408245 0.217328,0.07275 0.232918,0.174622 0.418578,0.247015 0.185661,0.07239 0.538515,0.117795 0.76998,0.182417 0.231463,0.06462 0.341844,0.14642 0.498676,0.170531 0.156835,0.02411 0.360185,-0.0067 1.024229,-0.05374 0.664043,-0.04701 1.788075,-0.110853 2.47065,-0.36897 0.682574,-0.258114 0.927658,-0.711176 1.18804,-1.062984 0.260382,-0.351806 0.535323,-0.601179 0.794784,-0.951879 0.259461,-0.3507 0.5041,-0.803597 0.807702,-1.213879 0.303601,-0.410284 0.665482,-0.776928 0.92501,-1.12758 0.259524,-0.350652 0.417324,-0.686623 0.713134,-1.147733 0.295809,-0.461111 0.729313,-1.046255 1.300178,-1.756482 0.570868,-0.710229 1.279099,-1.545068 1.77922,-2.036569 0.500123,-0.491498 0.790702,-0.638987 1.163754,-1.266071 0.373052,-0.627086 0.83091,-1.735788 1.095539,-2.399337 0.264631,-0.663551 0.335748,-0.882488 0.0067,-1.352891 -0.329027,-0.4704 -1.06163,-1.194239 -1.603517,-1.6862 -0.541888,-0.491961 -0.893496,-0.751867 -1.397331,-0.989605 -0.503836,-0.237737 -1.160574,-0.451689 -1.738913,-0.833023 -0.578337,-0.381336 -1.076865,-0.931571 -1.560111,-1.380278 -0.483245,-0.448707 -0.951568,-0.795382 -1.138949,-0.977201 -0.18738,-0.181819 -0.09336,-0.195795 0.06201,-0.40721 0.155366,-0.211415 0.375185,-0.621437 0.556554,-1.044898 0.181369,-0.423463 0.324302,-0.861033 0.533818,-1.205611 0.209516,-0.344577 0.484674,-0.593966 0.751893,-0.894003 0.267216,-0.300038 0.527113,-0.651626 0.709517,-0.835091 0.182401,-0.183465 0.28407,-0.198506 0.420129,-0.322977 0.13606,-0.124471 0.309179,-0.358913 0.499195,-0.491442 0.190013,-0.132533 0.393853,-0.162476 0.580842,-0.294556 0.186989,-0.132082 0.360162,-0.366628 0.679027,-0.674896 0.318868,-0.308266 0.782651,-0.689756 1.100709,-0.997355 0.318058,-0.307599 0.491302,-0.542002 0.723987,-0.733287 0.232686,-0.191286 0.5231,-0.338532 0.848527,-0.595313 0.325427,-0.256781 0.687234,-0.623496 1.065051,-0.888317 0.377817,-0.264822 0.769977,-0.427623 1.095023,-0.684197 0.325046,-0.256574 0.585087,-0.607613 1.849501,-1.213363 1.264415,-0.60575 3.531272,-1.465353 5.396053,-1.534274 1.864781,-0.06892 3.326032,0.649968 4.529955,1.360125 1.203923,0.710155 2.150589,1.41079 2.843239,1.83193 0.692647,0.42114 1.130448,0.564343 1.532205,0.81752 0.401756,0.253177 0.768458,0.614865 0.957048,0.840259 0.188589,0.225393 0.201837,0.314367 0.237712,0.352951 0.03587,0.03858 0.09164,0.0304 0.124539,0.06976 0.0329,0.03936 0.04538,0.12297 0.864029,-0.32298 0.81865,-0.445947 2.442623,-1.417926 3.832325,-2.562632 1.389703,-1.144707 2.546716,-2.462713 3.652491,-3.773413 1.105776,-1.310701 2.160667,-2.614314 2.640148,-3.934127 0.47948,-1.319816 0.383302,-2.65906 0.285771,-3.322796 -0.09753,-0.663734 -0.199586,-0.648293 -0.259416,-0.68988 -0.05983,-0.04159 -0.07484,-0.14369 -0.192236,-0.279569 -0.117398,-0.13588 -0.34005,-0.305324 -0.460436,-0.440799 -0.120388,-0.135475 -0.135821,-0.237178 -0.190169,-0.28267 -0.05435,-0.04549 -0.14995,-0.03117 -0.04961,-0.327628 0.100338,-0.296461 0.400023,-0.904849 0.759126,-1.55288 0.359103,-0.648028 0.777386,-1.335383 1.014407,-1.838645 0.237022,-0.503261 0.293339,-0.824333 0.408245,-1.102775 0.114903,-0.278442 0.287988,-0.512564 0.402558,-0.789099 0.114572,-0.276537 0.170791,-0.597252 0.502295,-1.168405 0.331507,-0.571153 0.937827,-1.390632 1.473296,-1.99161 0.535469,-0.600978 0.999466,-0.982711 1.518771,-1.684651 0.519303,-0.70194 1.094865,-1.72505 1.393712,-2.860808 0.298849,-1.135757 0.320664,-2.386052 0.366903,-3.121255 0.04624,-0.735203 0.117663,-0.954483 0.115755,-1.31775 -0.0019,-0.363266 -0.07833,-0.872149 -0.02997,-1.245402 0.04836,-0.373252 0.221615,-0.607575 0.51108,-1.121895 0.289464,-0.51432 0.695782,-1.30974 1.288809,-2.234489 C 89.149877,9.7572873 89.929451,8.703745 90.4203,8.1617765 90.91115,7.619808 91.109961,7.5901178 91.590772,7.2336679 92.03673,6.9030575 92.723165,6.2928053 93.101792,5.7722583 a 73.304886,73.304886 0 0 0 -11.7357,-0.9456795 z" />
      <path
         id="path833-6"
         style="fill:#3aff64;fill-opacity:1;stroke:#655454;stroke-width:0.73874;stroke-linecap:round;stroke-linejoin:bevel;stroke-miterlimit:4;stroke-dasharray:none;stroke-opacity:1"
         d="m 501.0918,97.074219 c -1.75325,0.647479 -3.91182,1.71065 -6.61719,3.519531 -6.57579,4.39675 -16.23105,13.05141 -21.56445,18.05273 -5.33341,5.00133 -6.34266,6.34745 -7.6875,8.19532 -1.34484,1.84787 -3.02384,4.19712 -2.67969,6.72265 0.34415,2.52554 2.70128,5.21999 4.38281,7.7461 1.68153,2.5261 2.69137,4.88271 3.36719,6.22851 0.67582,1.34581 1.01304,1.68246 1.3457,2.85742 0.33266,1.17497 0.66886,3.18662 2.38867,6.41602 1.71982,3.2294 4.81688,7.6769 6.36133,10.23633 1.54445,2.55943 1.54419,3.23181 -0.0918,4.05469 -1.63599,0.82287 -4.91468,1.80791 -7.22852,2.63671 -2.31384,0.82881 -3.66162,1.50214 -5.17383,1.83985 -1.51221,0.33771 -3.19581,0.33754 -4.21094,0.50586 -1.01512,0.16832 -1.35149,0.50546 -1.85156,0.67383 -0.50007,0.16836 -1.1739,0.1682 -1.51562,0.33593 -0.34173,0.16774 -0.3418,0.49248 -0.3418,0.98633 0,0.49385 8.7e-4,1.15548 0.16992,2.83399 0.16905,1.67851 0.50584,4.37359 2.36524,7.74609 1.85939,3.3725 5.23328,7.42332 7.42773,10.45117 2.19445,3.02785 3.21293,5.03184 3.10938,6.02734 -0.10356,0.99551 -1.33354,0.994 -3.29688,1.49805 -1.96334,0.50405 -4.65525,1.51542 -3.82422,4.03906 0.83103,2.52365 5.18164,6.54853 6.34375,9.06055 1.16211,2.51202 -0.85951,3.52243 -2.04101,4.36719 -1.18151,0.84476 -1.51746,1.51745 -2.01954,2.01953 -0.50207,0.50208 -1.17612,0.83963 -1.85156,1.3457 -0.67544,0.50608 -1.34911,1.17955 -3.36914,3.03125 -2.02003,1.85171 -5.38645,4.88148 -7.07031,7.41211 -1.68386,2.53063 -1.68359,4.55236 -1.68359,6.4043 -1e-5,1.85194 -5.8e-4,3.53396 1.18164,6.22852 1.18221,2.69455 3.54003,6.39848 4.71484,9.25976 1.17481,2.86128 1.17461,4.88273 0.83789,6.22461 -0.33672,1.34188 -1.00956,2.01461 -1.51563,2.85937 -0.50606,0.84477 -0.84377,1.85493 -1.68554,4.54883 -0.84177,2.69391 -2.18901,7.07241 -1.19141,11.87891 0.99761,4.8065 4.33115,10.03676 7.5586,14.99219 3.22744,4.95542 6.34926,9.63446 8.24609,12.64843 1.89683,3.01398 2.56928,4.36142 3.23828,7.80664 0.669,3.44523 1.33873,8.99065 4.21289,14.12891 2.87416,5.13827 7.94415,9.87019 11.64258,12.5625 3.69843,2.69231 6.02367,3.35089 7.92773,3.84766 1.90406,0.49677 3.3879,0.83247 5.29493,0.33398 1.90702,-0.49848 4.24595,-1.82665 7.76367,-4.01367 3.51772,-2.18702 8.21401,-5.23306 11.38281,-3.74023 3.1688,1.49282 4.80919,7.51168 4.95313,11.86328 0.14393,4.35159 -1.20257,7.04505 -1.875,9.06836 -0.67244,2.0233 -0.67362,3.37019 -1.17969,5.05078 -0.50608,1.68058 -1.51568,3.70066 -2.35742,5.89062 -0.84174,2.18997 -1.51495,4.54689 -2.69336,7.07031 -1.17842,2.52343 -2.86218,5.21666 -3.70313,7.07227 -0.84095,1.85561 -0.8412,2.86529 -1.51562,5.38867 -0.67443,2.52339 -2.02016,6.56416 -3.36524,9.08594 -1.34507,2.52178 -2.69295,3.53143 -4.20898,4.87891 -1.51603,1.34747 -3.19928,3.03261 -6.22656,4.54687 -3.02729,1.51426 -7.40497,2.86075 -10.4336,3.53516 -3.02863,0.67441 -4.71208,0.67387 -5.83984,0.59765 -1.12776,-0.0762 -1.70131,-0.232 -1.36719,1.71485 0.33412,1.94684 1.58388,5.98802 2.37695,8.68164 0.79307,2.69362 1.12929,4.04073 1.97461,5.38672 0.84532,1.34599 2.1922,2.69233 3.87305,6.06054 1.68085,3.36822 3.70246,8.7568 4.54102,11.78321 0.83855,3.0264 0.50134,3.69817 0.33398,4.54297 -0.16737,0.84479 -0.16642,1.85502 -0.50391,2.86132 -0.33748,1.00631 -1.01145,2.01632 -1.85351,3.70118 -0.84206,1.68485 -1.85184,4.04229 -2.69336,5.7246 -0.84152,1.68232 -1.51498,2.69339 -2.52539,4.71485 -1.01041,2.02146 -2.35885,5.05171 -3.03125,6.73242 -0.67241,1.68071 -0.67064,2.00547 -0.99805,2.5 -0.32741,0.49453 -0.98345,1.16762 -1.64844,2.17969 -0.66498,1.01207 -1.33712,2.3598 -2.68359,4.3789 -1.34647,2.0191 -3.36772,4.71221 -3.86719,6.56836 -0.49947,1.85616 0.51156,2.8675 1.68945,4.21485 1.1779,1.34735 2.52343,3.02946 3.53516,4.03711 1.01173,1.00765 1.68557,1.3449 2.69531,2.01953 0.40712,0.272 0.89139,0.61428 1.375,0.95117 A 277.05784,277.05784 0 0 0 584.58398,295.30078 277.05784,277.05784 0 0 0 501.0918,97.074219 Z"
         transform="scale(0.26458333)" />
      <path
         id="path1026"
         style="fill:#3aff64;fill-opacity:1;stroke:#655454;stroke-width:0.73874;stroke-linecap:butt;stroke-linejoin:miter;stroke-miterlimit:4;stroke-dasharray:none;stroke-opacity:1"
         d="m 108.87305,352.99805 c -2.4633,0.0149 -5.15457,0.52839 -6.73633,1.93945 -2.10902,1.88141 -2.235653,5.34164 -2.972658,7.74805 -0.737004,2.4064 -2.084256,3.75295 -3.259765,4.59375 -1.175509,0.84079 -2.186134,1.1778 -4.386719,2.70117 -2.200581,1.52337 -5.544062,4.19831 -7.736328,6.39062 -2.192266,2.19231 -3.201499,3.87539 -4.546875,5.38868 -1.34538,1.51324 -3.028592,2.85973 -4.376953,4.37695 -1.348362,1.51718 -2.360257,3.20185 -3.201172,4.3789 -0.840911,1.17703 -1.512657,1.8508 -2.355469,3.53711 -0.842812,1.68632 -1.853778,4.38009 -2.695312,6.23047 -0.841535,1.85038 -1.514224,2.85913 -2.019531,3.8711 -0.505312,1.012 -0.84203,2.02175 -1.683594,3.53515 -0.841565,1.51336 -2.189886,3.53456 -3.197266,4.71094 -0.996797,1.16398 -1.663875,1.50897 -2.169922,2.33594 a 277.05784,277.05784 0 0 0 249.990234,157.62109 277.05784,277.05784 0 0 0 85.65039,-13.57226 c -0.33498,-2.34222 -0.52662,-4.83387 -0.24414,-7.29493 0.659,-5.74136 3.86799,-11.28709 5.55078,-14.58593 1.6828,-3.29881 1.87842,-4.42451 0.63477,-6.66992 -1.24362,-2.24542 -3.93654,-5.61284 -5.78711,-7.63477 -1.85057,-2.02197 -2.86088,-2.69591 -3.53711,-3.36719 -0.6762,-0.67128 -1.01227,-1.34413 -1.70899,-3.00976 -0.69675,-1.6656 -1.74489,-4.30387 -2.40234,-5.57032 -0.65745,-1.26648 -0.97688,-1.26648 -2.14453,-2.26953 -1.16761,-1.00305 -3.183,-3.01818 -4.35938,-4.03125 -1.17641,-1.01318 -1.51351,-1.01279 -2.85937,-1.34765 -1.34586,-0.33502 -3.70284,-1.00898 -7.15234,-1.68555 -3.44951,-0.67657 -7.88042,-1.33751 -11.47461,-3.79492 -3.5942,-2.45738 -6.15845,-6.6077 -7.44141,-9.35156 -1.28296,-2.74383 -1.28259,-4.09008 -1.11523,-5.09766 0.16736,-1.00759 0.50251,-1.67105 0.67187,-2.42578 0.16935,-0.75477 0.16979,-1.60704 0.67383,-3.21485 0.50404,-1.60781 1.51424,-3.96586 2.35351,-5.31054 0.83928,-1.34468 1.501,-1.67087 1.83008,-1.99024 0.3291,-0.31952 0.3298,-0.64423 0.83399,-1.65234 0.50419,-1.00815 1.51374,-2.6923 2.6875,-4.20899 1.17376,-1.51664 2.51074,-2.86367 3.01172,-4.19531 0.50095,-1.33164 0.16277,-2.65796 -0.3418,-4.33203 -0.50457,-1.6741 -1.17654,-3.69488 -2.68945,-6.2207 -1.51292,-2.52586 -3.86982,-5.55716 -4.37891,-7.67774 -0.50909,-2.12058 0.83706,-3.31874 1.17578,-7.43359 0.33871,-4.11485 -0.34031,-11.24737 -2.64844,-16.37891 -2.30812,-5.13157 -6.39143,-8.56044 -9.31445,-10.23632 -2.92302,-1.676 -4.78582,-1.67563 -5.72266,-1.50782 -0.93684,0.16774 -0.93725,0.4925 -1.10351,0.81641 -0.16628,0.32406 -0.49928,0.65653 -0.4961,1.74609 0.003,1.08956 0.3405,2.92606 0.50782,4.17969 0.16732,1.25363 0.16615,1.92636 0.50586,2.9375 0.33971,1.01117 1.01392,2.35727 1.34765,3.70313 0.33373,1.34588 0.33399,2.69414 0.33399,4.04101 0,1.34687 -10e-4,2.69308 -1.01172,4.52539 -1.01048,1.83232 -3.03002,4.15928 -4.05078,6.78125 -1.02065,2.62194 -1.04178,5.52795 -1.05274,8.00781 -0.011,2.47987 -0.0117,4.49999 -0.0117,5.98633 0,1.48638 -7.7e-4,2.43816 -1.00976,3.58203 -1.009,1.14388 -3.0293,2.49095 -4.88281,4.17578 -1.85351,1.68488 -3.5364,3.70461 -5.72266,5.38672 -2.18625,1.68208 -4.88082,3.02984 -6.56641,4.04102 -1.68559,1.01114 -2.35855,1.68478 -4.29687,2.35742 -1.93833,0.67264 -5.14864,1.3453 -6.75781,1.51953 -1.60918,0.17416 -1.60992,-0.16312 -0.9375,-2.18555 0.67241,-2.02242 2.01911,-5.72634 3.14062,-8.0371 1.12151,-2.31073 2.01751,-3.22231 2.88867,-3.83985 0.87117,-0.61754 1.71216,-0.93729 1.14649,-1.70703 -0.56567,-0.76974 -2.54523,-1.9977 -6.06055,-3.79102 -3.51532,-1.79331 -8.56551,-4.15073 -13.66406,-5.33203 -5.09856,-1.18121 -10.24382,-1.18132 -13.82813,-0.8457 -3.5843,0.3357 -5.60331,1.0086 -8.63476,2.35547 -3.03146,1.34687 -7.07223,3.36656 -10.44141,5.72461 -3.36918,2.35801 -6.064,5.05352 -7.57422,6.40039 -1.51022,1.34699 -1.8458,1.34608 -2.15625,1.67187 -0.31044,0.32595 -0.58336,0.97181 -2.0625,1.79688 -1.47914,0.82503 -4.17231,1.83592 -6.19336,2.67773 -2.02104,0.84182 -3.36871,1.51504 -4.38086,2.18946 -1.01215,0.67445 -1.68469,1.34879 -2.52148,1.68554 -0.8368,0.33676 -1.84753,0.33594 -2.66406,0.33594 -0.81654,0 -1.4401,0.001 -1.91993,-0.16211 -0.47982,-0.16339 -0.81526,-0.50035 -1.32031,-0.67383 -0.50504,-0.17348 -1.17983,-0.1747 -2,-0.49218 -0.82016,-0.31767 -1.78868,-0.95974 -2.41797,-1.28516 -0.62928,-0.3253 -0.91705,-0.3261 -1.5664,-0.82617 -0.64936,-0.50011 -1.65959,-1.50916 -4.35352,-4.3711 -2.69393,-2.86193 -7.07177,-7.57568 -8.5918,-10.61132 -1.52002,-3.03564 -0.17343,-4.38319 0.83594,-5.56055 1.00938,-1.17736 1.68424,-2.18647 3.20117,-3.53516 1.51694,-1.34872 3.87269,-3.03242 5.72266,-5.72265 1.84998,-2.69027 3.19836,-6.39503 4.03906,-8.41602 0.84071,-2.02099 1.17167,-2.35422 1.33789,-3.47851 0.16623,-1.12434 0.16627,-3.0497 -0.16406,-5.01758 -0.33035,-1.96785 -0.99383,-3.97876 -1.32812,-7.00586 -0.33431,-3.02706 -0.33572,-7.06879 -6.0254,-12.11914 -5.68967,-5.05032 -17.0302,-11.08057 -23.375,-13.5918 -6.34479,-2.51119 -7.69271,-1.50075 -10.38476,-0.1543 -2.69206,1.34642 -6.73176,3.03049 -9.59375,4.20899 -2.862,1.17853 -4.54695,1.85178 -7.40625,2.02148 -2.85931,0.16989 -6.89964,-0.16699 -9.59375,-0.33593 -2.69412,-0.1688 -4.04088,-0.1691 -6.22852,-0.83985 -2.18764,-0.67075 -5.21847,-2.01622 -8.25195,-5.7168 -3.03348,-3.70057 -6.06354,-9.76208 -9.76562,-15.15039 -3.70209,-5.38829 -8.07804,-10.10304 -11.10743,-12.96679 -3.02938,-2.86375 -4.71394,-3.87299 -7.59765,-4.23828 -0.72093,-0.0913 -1.51679,-0.14168 -2.33789,-0.13672 z"
         transform="scale(0.26458333)" />
    </g>
    <g
       id="g1047"
       transform="rotate(1.7766657,74.446319,-33.304756)">
      <path
         style="fill:none;stroke:#000000;stroke-width:0.239191;stroke-linecap:butt;stroke-linejoin:miter;stroke-miterlimit:4;stroke-dasharray:none;stroke-opacity:1"
         d="m 104.13983,40.549927 c 0,0 5.61141,4.500515 5.15037,1.236796 -0.23927,-1.693733 3.06746,-2.288705 2.79848,-4.301433 -0.10264,-0.767544 -1.88393,-1.359271 -1.88393,-1.359271"
         id="path1436"
         sodipodi:nodetypes="cssc" />
      <path
         style="fill:none;stroke:#000000;stroke-width:0.239191;stroke-linecap:butt;stroke-linejoin:miter;stroke-miterlimit:4;stroke-dasharray:none;stroke-opacity:0.300356"
         d="m 104.15649,40.621419 c 0,0 5.61142,4.500515 5.15038,1.236796 -0.23926,-1.693733 3.06746,-2.288705 2.79848,-4.301433 -0.10264,-0.767544 -1.88393,-1.359271 -1.88393,-1.359271"
         id="path1436-6"
         sodipodi:nodetypes="cssc" />
      <path
         style="fill:#303030;fill-opacity:0.18385;stroke:none;stroke-width:0.383551px;stroke-linecap:butt;stroke-linejoin:miter;stroke-opacity:1"
         d="m 110.62046,37.874568 -0.65348,0.315241 -8.02348,-4.416219 0.53289,-0.793556 z"
         id="path1432"
         sodipodi:nodetypes="ccccc" />
      <g
         id="g1518"
         transform="matrix(1.4496431,0,0,1.4496431,-35.461826,-33.381623)">
        <path
           style="fill:#6d6d6d;fill-opacity:1;stroke:none;stroke-width:0.279744px;stroke-linecap:butt;stroke-linejoin:miter;stroke-opacity:1"
           d="m 98.986303,43.863008 7.16e-4,0.352897 -0.63921,0.01033 z"
           id="path1505"
           sodipodi:nodetypes="cccc" />
        <path
           style="fill:#888888;fill-opacity:1;stroke:none;stroke-width:0.264583px;stroke-linecap:butt;stroke-linejoin:miter;stroke-opacity:1"
           d="m 98.347807,44.226233 0.250584,-0.387943 0.517633,-0.30095 -0.12972,0.325668 z"
           id="path1511"
           sodipodi:nodetypes="ccccc" />
        <path
           style="fill:#737373;fill-opacity:1;stroke:none;stroke-width:0.264583px;stroke-linecap:butt;stroke-linejoin:miter;stroke-opacity:1"
           d="m 98.987019,44.215905 0.125805,-0.384915 0.0032,-0.29365 -0.129721,0.325668 z"
           id="path1513"
           sodipodi:nodetypes="ccccc" />
      </g>
      <path
         style="fill:none;stroke:#000000;stroke-width:0.239191;stroke-linecap:butt;stroke-linejoin:miter;stroke-miterlimit:4;stroke-dasharray:none;stroke-opacity:1"
         d="m 103.31275,29.922776 c -0.18028,-0.171638 -0.36448,-0.347011 -0.90924,-0.609418 -0.54477,-0.262408 -1.45079,-0.60988 -2.18774,-0.776807 -0.736947,-0.166926 -1.30392,-0.15143 -1.669882,-0.07108 -0.365962,0.08035 -0.5274,0.225644 -0.770108,0.481589 -0.242709,0.255945 -0.566855,0.622778 -1.056732,0.771735 -0.489878,0.148957 -1.13821,0.08035 -1.61696,-0.12709 -0.478751,-0.207436 -0.776253,-0.553511 -1.276395,-0.747833 -0.500142,-0.194323 -1.22622,-0.248026 -2.120751,0.06752 -0.894532,0.315545 -2.120511,1.117693 -3.315878,1.317327 -1.195366,0.199634 -3.627747,-0.0017 -5.634202,-0.16783"
         id="path3539"
         inkscape:path-effect="#path-effect3541"
         inkscape:original-d="m 103.31275,29.922776 c -0.18037,-0.171541 -0.36457,-0.346916 -0.55261,-0.526126 -0.90219,-0.343635 -1.80821,-0.691109 -2.71807,-1.04242 -0.563139,0.01934 -1.130113,0.03482 -1.700922,0.04649 -0.157596,0.149129 -0.319034,0.294423 -0.484305,0.435876 -0.323366,0.366768 -0.647512,0.733601 -0.972438,1.100498 -0.655271,-0.069 -1.303603,-0.137615 -1.964558,-0.207905 -0.296478,-0.344947 -0.593981,-0.691021 -0.882876,-1.027021 -0.711447,-0.05226 -1.437524,-0.105969 -2.17828,-0.161112 -1.04799,0.686325 -2.273969,1.488473 -3.084465,2.018139 -1.580557,-0.130497 -6.019364,-0.498306 -6.019364,-0.498306"
         sodipodi:nodetypes="ccccccccccc" />
      <g
         id="g1706"
         transform="matrix(1.2619622,0.71338375,-0.71338375,1.2619622,13.081733,-96.946076)">
        <g
           id="g1406"
           transform="matrix(0.59673502,0.00285605,-0.00285605,0.59673502,51.579396,17.519945)">
          <rect
             style="fill:#f9dbdb;fill-opacity:1;stroke:none;stroke-width:0.264999;stroke-linecap:butt;stroke-linejoin:bevel;stroke-miterlimit:4;stroke-dasharray:none;stroke-opacity:1"
             id="rect1202"
             width="10.983839"
             height="5.507041"
             x="77.73867"
             y="44.752762" />
          <path
             style="fill:none;stroke:#a3a3a3;stroke-width:0.100546;stroke-linecap:square;stroke-linejoin:miter;stroke-miterlimit:4;stroke-dasharray:none;stroke-opacity:1"
             d="m 85.759346,50.115655 -0.03936,-5.300041 2.875339,5.360513"
             id="path1204" />
          <g
             id="g1363"
             transform="translate(-0.20148394,0.26726953)">
            <rect
               style="fill:#888888;fill-opacity:1;stroke:none;stroke-width:0.0897024;stroke-linecap:butt;stroke-linejoin:bevel;stroke-miterlimit:4;stroke-dasharray:none;stroke-opacity:1"
               id="rect1206"
               width="0.69695169"
               height="0.69695169"
               x="78.59481"
               y="45.175964" />
            <rect
               style="fill:#888888;fill-opacity:1;stroke:none;stroke-width:0.0897024;stroke-linecap:butt;stroke-linejoin:bevel;stroke-miterlimit:4;stroke-dasharray:none;stroke-opacity:1"
               id="rect1208"
               width="0.69695169"
               height="0.69695169"
               x="79.488968"
               y="45.175964" />
            <rect
               style="fill:#888888;fill-opacity:1;stroke:none;stroke-width:0.0897024;stroke-linecap:butt;stroke-linejoin:bevel;stroke-miterlimit:4;stroke-dasharray:none;stroke-opacity:1"
               id="rect1210"
               width="0.69695169"
               height="0.69695169"
               x="80.430931"
               y="45.175964" />
            <rect
               style="fill:#888888;fill-opacity:1;stroke:none;stroke-width:0.0897024;stroke-linecap:butt;stroke-linejoin:bevel;stroke-miterlimit:4;stroke-dasharray:none;stroke-opacity:1"
               id="rect1212"
               width="0.69695169"
               height="0.69695169"
               x="81.399239"
               y="45.175964" />
            <rect
               style="fill:#888888;fill-opacity:1;stroke:none;stroke-width:0.0897024;stroke-linecap:butt;stroke-linejoin:bevel;stroke-miterlimit:4;stroke-dasharray:none;stroke-opacity:1"
               id="rect1214"
               width="0.69695169"
               height="0.69695169"
               x="82.321571"
               y="45.175964" />
            <rect
               style="fill:#888888;fill-opacity:1;stroke:none;stroke-width:0.0897024;stroke-linecap:butt;stroke-linejoin:bevel;stroke-miterlimit:4;stroke-dasharray:none;stroke-opacity:1"
               id="rect1216"
               width="0.69695169"
               height="0.69695169"
               x="83.20565"
               y="45.167263" />
            <rect
               style="fill:#888888;fill-opacity:1;stroke:none;stroke-width:0.0897024;stroke-linecap:butt;stroke-linejoin:bevel;stroke-miterlimit:4;stroke-dasharray:none;stroke-opacity:1"
               id="rect1218"
               width="0.69695169"
               height="0.69695169"
               x="84.064575"
               y="45.175964" />
            <rect
               style="fill:#888888;fill-opacity:1;stroke:none;stroke-width:0.0897024;stroke-linecap:butt;stroke-linejoin:bevel;stroke-miterlimit:4;stroke-dasharray:none;stroke-opacity:1"
               id="rect1220"
               width="0.69695169"
               height="0.69695169"
               x="78.59481"
               y="46.060665" />
            <rect
               style="fill:#888888;fill-opacity:1;stroke:none;stroke-width:0.0897024;stroke-linecap:butt;stroke-linejoin:bevel;stroke-miterlimit:4;stroke-dasharray:none;stroke-opacity:1"
               id="rect1222"
               width="0.69695169"
               height="0.69695169"
               x="79.488968"
               y="46.060665" />
            <rect
               style="fill:#888888;fill-opacity:1;stroke:none;stroke-width:0.0897024;stroke-linecap:butt;stroke-linejoin:bevel;stroke-miterlimit:4;stroke-dasharray:none;stroke-opacity:1"
               id="rect1224"
               width="0.69695169"
               height="0.69695169"
               x="80.430931"
               y="46.060665" />
            <rect
               style="fill:#888888;fill-opacity:1;stroke:none;stroke-width:0.0897024;stroke-linecap:butt;stroke-linejoin:bevel;stroke-miterlimit:4;stroke-dasharray:none;stroke-opacity:1"
               id="rect1226"
               width="0.69695169"
               height="0.69695169"
               x="81.399239"
               y="46.060665" />
            <rect
               style="fill:#888888;fill-opacity:1;stroke:none;stroke-width:0.0897024;stroke-linecap:butt;stroke-linejoin:bevel;stroke-miterlimit:4;stroke-dasharray:none;stroke-opacity:1"
               id="rect1228"
               width="0.69695169"
               height="0.69695169"
               x="82.321571"
               y="46.060665" />
            <rect
               style="fill:#888888;fill-opacity:1;stroke:none;stroke-width:0.0897024;stroke-linecap:butt;stroke-linejoin:bevel;stroke-miterlimit:4;stroke-dasharray:none;stroke-opacity:1"
               id="rect1230"
               width="0.69695169"
               height="0.69695169"
               x="83.20565"
               y="46.051964" />
            <rect
               style="fill:#888888;fill-opacity:1;stroke:none;stroke-width:0.0897024;stroke-linecap:butt;stroke-linejoin:bevel;stroke-miterlimit:4;stroke-dasharray:none;stroke-opacity:1"
               id="rect1232"
               width="0.69695169"
               height="0.69695169"
               x="84.064575"
               y="46.060665" />
            <rect
               style="fill:#888888;fill-opacity:1;stroke:none;stroke-width:0.0897024;stroke-linecap:butt;stroke-linejoin:bevel;stroke-miterlimit:4;stroke-dasharray:none;stroke-opacity:1"
               id="rect1234"
               width="0.69695169"
               height="0.69695169"
               x="78.59481"
               y="46.890362" />
            <rect
               style="fill:#888888;fill-opacity:1;stroke:none;stroke-width:0.0897024;stroke-linecap:butt;stroke-linejoin:bevel;stroke-miterlimit:4;stroke-dasharray:none;stroke-opacity:1"
               id="rect1236"
               width="0.69695169"
               height="0.69695169"
               x="79.488968"
               y="46.890362" />
            <rect
               style="fill:#888888;fill-opacity:1;stroke:none;stroke-width:0.0897024;stroke-linecap:butt;stroke-linejoin:bevel;stroke-miterlimit:4;stroke-dasharray:none;stroke-opacity:1"
               id="rect1238"
               width="0.69695169"
               height="0.69695169"
               x="80.430931"
               y="46.890362" />
            <rect
               style="fill:#888888;fill-opacity:1;stroke:none;stroke-width:0.0897024;stroke-linecap:butt;stroke-linejoin:bevel;stroke-miterlimit:4;stroke-dasharray:none;stroke-opacity:1"
               id="rect1240"
               width="0.69695169"
               height="0.69695169"
               x="81.399239"
               y="46.890362" />
            <rect
               style="fill:#888888;fill-opacity:1;stroke:none;stroke-width:0.0897024;stroke-linecap:butt;stroke-linejoin:bevel;stroke-miterlimit:4;stroke-dasharray:none;stroke-opacity:1"
               id="rect1242"
               width="0.69695169"
               height="0.69695169"
               x="82.321571"
               y="46.890362" />
            <rect
               style="fill:#888888;fill-opacity:1;stroke:none;stroke-width:0.0897024;stroke-linecap:butt;stroke-linejoin:bevel;stroke-miterlimit:4;stroke-dasharray:none;stroke-opacity:1"
               id="rect1244"
               width="0.69695169"
               height="0.69695169"
               x="83.20565"
               y="46.88166" />
            <rect
               style="fill:#888888;fill-opacity:1;stroke:none;stroke-width:0.0897024;stroke-linecap:butt;stroke-linejoin:bevel;stroke-miterlimit:4;stroke-dasharray:none;stroke-opacity:1"
               id="rect1246"
               width="0.69695169"
               height="0.69695169"
               x="84.064575"
               y="46.890362" />
            <rect
               style="fill:#888888;fill-opacity:1;stroke:none;stroke-width:0.0897024;stroke-linecap:butt;stroke-linejoin:bevel;stroke-miterlimit:4;stroke-dasharray:none;stroke-opacity:1"
               id="rect1248"
               width="0.69695169"
               height="0.69695169"
               x="78.59481"
               y="47.74242" />
            <rect
               style="fill:#888888;fill-opacity:1;stroke:none;stroke-width:0.0897024;stroke-linecap:butt;stroke-linejoin:bevel;stroke-miterlimit:4;stroke-dasharray:none;stroke-opacity:1"
               id="rect1250"
               width="0.69695169"
               height="0.69695169"
               x="79.488968"
               y="47.74242" />
            <rect
               style="fill:#888888;fill-opacity:1;stroke:none;stroke-width:0.0897024;stroke-linecap:butt;stroke-linejoin:bevel;stroke-miterlimit:4;stroke-dasharray:none;stroke-opacity:1"
               id="rect1252"
               width="0.69695169"
               height="0.69695169"
               x="80.430931"
               y="47.74242" />
            <rect
               style="fill:#888888;fill-opacity:1;stroke:none;stroke-width:0.0897024;stroke-linecap:butt;stroke-linejoin:bevel;stroke-miterlimit:4;stroke-dasharray:none;stroke-opacity:1"
               id="rect1254"
               width="0.69695169"
               height="0.69695169"
               x="81.399239"
               y="47.74242" />
            <rect
               style="fill:#888888;fill-opacity:1;stroke:none;stroke-width:0.0897024;stroke-linecap:butt;stroke-linejoin:bevel;stroke-miterlimit:4;stroke-dasharray:none;stroke-opacity:1"
               id="rect1256"
               width="0.69695169"
               height="0.69695169"
               x="82.321571"
               y="47.74242" />
            <rect
               style="fill:#888888;fill-opacity:1;stroke:none;stroke-width:0.0897024;stroke-linecap:butt;stroke-linejoin:bevel;stroke-miterlimit:4;stroke-dasharray:none;stroke-opacity:1"
               id="rect1258"
               width="0.69695169"
               height="0.69695169"
               x="83.20565"
               y="47.733719" />
            <rect
               style="fill:#888888;fill-opacity:1;stroke:none;stroke-width:0.0897024;stroke-linecap:butt;stroke-linejoin:bevel;stroke-miterlimit:4;stroke-dasharray:none;stroke-opacity:1"
               id="rect1260"
               width="0.69695169"
               height="0.69695169"
               x="84.064575"
               y="47.74242" />
            <rect
               style="fill:#888888;fill-opacity:1;stroke:none;stroke-width:0.0897024;stroke-linecap:butt;stroke-linejoin:bevel;stroke-miterlimit:4;stroke-dasharray:none;stroke-opacity:1"
               id="rect1262"
               width="0.69695169"
               height="0.69695169"
               x="78.59481"
               y="48.579872" />
            <rect
               style="fill:#888888;fill-opacity:1;stroke:none;stroke-width:0.0897024;stroke-linecap:butt;stroke-linejoin:bevel;stroke-miterlimit:4;stroke-dasharray:none;stroke-opacity:1"
               id="rect1264"
               width="0.69695169"
               height="0.69695169"
               x="79.488968"
               y="48.579872" />
            <rect
               style="fill:#888888;fill-opacity:1;stroke:none;stroke-width:0.0897024;stroke-linecap:butt;stroke-linejoin:bevel;stroke-miterlimit:4;stroke-dasharray:none;stroke-opacity:1"
               id="rect1266"
               width="0.69695169"
               height="0.69695169"
               x="80.430931"
               y="48.579872" />
            <rect
               style="fill:#888888;fill-opacity:1;stroke:none;stroke-width:0.0897024;stroke-linecap:butt;stroke-linejoin:bevel;stroke-miterlimit:4;stroke-dasharray:none;stroke-opacity:1"
               id="rect1268"
               width="0.69695169"
               height="0.69695169"
               x="81.399239"
               y="48.579872" />
            <rect
               style="fill:#888888;fill-opacity:1;stroke:none;stroke-width:0.0897024;stroke-linecap:butt;stroke-linejoin:bevel;stroke-miterlimit:4;stroke-dasharray:none;stroke-opacity:1"
               id="rect1270"
               width="0.69695169"
               height="0.69695169"
               x="82.321571"
               y="48.579872" />
            <rect
               style="fill:#888888;fill-opacity:1;stroke:none;stroke-width:0.0897024;stroke-linecap:butt;stroke-linejoin:bevel;stroke-miterlimit:4;stroke-dasharray:none;stroke-opacity:1"
               id="rect1272"
               width="0.69695169"
               height="0.69695169"
               x="83.20565"
               y="48.571171" />
            <rect
               style="fill:#888888;fill-opacity:1;stroke:none;stroke-width:0.0897024;stroke-linecap:butt;stroke-linejoin:bevel;stroke-miterlimit:4;stroke-dasharray:none;stroke-opacity:1"
               id="rect1274"
               width="0.69695169"
               height="0.69695169"
               x="84.064575"
               y="48.579872" />
          </g>
          <path
             style="fill:#ffffff;fill-opacity:1;stroke:#a16f59;stroke-width:0.065;stroke-linecap:butt;stroke-linejoin:miter;stroke-miterlimit:4;stroke-dasharray:none;stroke-opacity:1"
             d="m 77.73867,44.752762 1.222592,-1.570715 h 9.657752 l 0.103497,1.570715"
             id="path1365" />
        </g>
        <g
           id="g1526"
           transform="translate(2.3003922,-0.04805309)">
          <path
             style="fill:#6d6d6d;fill-opacity:1;stroke:none;stroke-width:0.279744px;stroke-linecap:butt;stroke-linejoin:miter;stroke-opacity:1"
             d="m 98.986303,43.863008 7.16e-4,0.352897 -0.63921,0.01033 z"
             id="path1520"
             sodipodi:nodetypes="cccc" />
          <path
             style="fill:#888888;fill-opacity:1;stroke:none;stroke-width:0.264583px;stroke-linecap:butt;stroke-linejoin:miter;stroke-opacity:1"
             d="m 98.347807,44.226233 0.250584,-0.387943 0.517633,-0.30095 -0.12972,0.325668 z"
             id="path1522"
             sodipodi:nodetypes="ccccc" />
          <path
             style="fill:#737373;fill-opacity:1;stroke:none;stroke-width:0.264583px;stroke-linecap:butt;stroke-linejoin:miter;stroke-opacity:1"
             d="m 98.987019,44.215905 0.125805,-0.384915 0.0032,-0.29365 -0.129721,0.325668 z"
             id="path1524"
             sodipodi:nodetypes="ccccc" />
        </g>
        <g
           id="g1534"
           transform="translate(2.9876556,-0.05642407)">
          <path
             style="fill:#6d6d6d;fill-opacity:1;stroke:none;stroke-width:0.279744px;stroke-linecap:butt;stroke-linejoin:miter;stroke-opacity:1"
             d="m 98.986303,43.863008 7.16e-4,0.352897 -0.63921,0.01033 z"
             id="path1528"
             sodipodi:nodetypes="cccc" />
          <path
             style="fill:#888888;fill-opacity:1;stroke:none;stroke-width:0.264583px;stroke-linecap:butt;stroke-linejoin:miter;stroke-opacity:1"
             d="m 98.347807,44.226233 0.250584,-0.387943 0.517633,-0.30095 -0.12972,0.325668 z"
             id="path1530"
             sodipodi:nodetypes="ccccc" />
          <path
             style="fill:#737373;fill-opacity:1;stroke:none;stroke-width:0.264583px;stroke-linecap:butt;stroke-linejoin:miter;stroke-opacity:1"
             d="m 98.987019,44.215905 0.125805,-0.384915 0.0032,-0.29365 -0.129721,0.325668 z"
             id="path1532"
             sodipodi:nodetypes="ccccc" />
        </g>
        <g
           id="g1544"
           transform="translate(3.6162476,-0.06082565)">
          <path
             style="fill:#6d6d6d;fill-opacity:1;stroke:none;stroke-width:0.279744px;stroke-linecap:butt;stroke-linejoin:miter;stroke-opacity:1"
             d="m 98.986303,43.863008 7.16e-4,0.352897 -0.63921,0.01033 z"
             id="path1538"
             sodipodi:nodetypes="cccc" />
          <path
             style="fill:#888888;fill-opacity:1;stroke:none;stroke-width:0.264583px;stroke-linecap:butt;stroke-linejoin:miter;stroke-opacity:1"
             d="m 98.347807,44.226233 0.250584,-0.387943 0.517633,-0.30095 -0.12972,0.325668 z"
             id="path1540"
             sodipodi:nodetypes="ccccc" />
          <path
             style="fill:#737373;fill-opacity:1;stroke:none;stroke-width:0.264583px;stroke-linecap:butt;stroke-linejoin:miter;stroke-opacity:1"
             d="m 98.987019,44.215905 0.125805,-0.384915 0.0032,-0.29365 -0.129721,0.325668 z"
             id="path1542"
             sodipodi:nodetypes="ccccc" />
        </g>
        <g
           id="g1570"
           transform="translate(4.3135552,-0.09208922)">
          <path
             style="fill:#6d6d6d;fill-opacity:1;stroke:none;stroke-width:0.279744px;stroke-linecap:butt;stroke-linejoin:miter;stroke-opacity:1"
             d="m 98.986303,43.863008 7.16e-4,0.352897 -0.63921,0.01033 z"
             id="path1564"
             sodipodi:nodetypes="cccc" />
          <path
             style="fill:#888888;fill-opacity:1;stroke:none;stroke-width:0.264583px;stroke-linecap:butt;stroke-linejoin:miter;stroke-opacity:1"
             d="m 98.347807,44.226233 0.250584,-0.387943 0.517633,-0.30095 -0.12972,0.325668 z"
             id="path1566"
             sodipodi:nodetypes="ccccc" />
          <path
             style="fill:#737373;fill-opacity:1;stroke:none;stroke-width:0.264583px;stroke-linecap:butt;stroke-linejoin:miter;stroke-opacity:1"
             d="m 98.987019,44.215905 0.125805,-0.384915 0.0032,-0.29365 -0.129721,0.325668 z"
             id="path1568"
             sodipodi:nodetypes="ccccc" />
        </g>
        <g
           id="g1578"
           transform="translate(5.0187647,-0.12032725)">
          <path
             style="fill:#6d6d6d;fill-opacity:1;stroke:none;stroke-width:0.279744px;stroke-linecap:butt;stroke-linejoin:miter;stroke-opacity:1"
             d="m 98.986303,43.863008 7.16e-4,0.352897 -0.63921,0.01033 z"
             id="path1572"
             sodipodi:nodetypes="cccc" />
          <path
             style="fill:#888888;fill-opacity:1;stroke:none;stroke-width:0.264583px;stroke-linecap:butt;stroke-linejoin:miter;stroke-opacity:1"
             d="m 98.347807,44.226233 0.250584,-0.387943 0.517633,-0.30095 -0.12972,0.325668 z"
             id="path1574"
             sodipodi:nodetypes="ccccc" />
          <path
             style="fill:#737373;fill-opacity:1;stroke:none;stroke-width:0.264583px;stroke-linecap:butt;stroke-linejoin:miter;stroke-opacity:1"
             d="m 98.987019,44.215905 0.125805,-0.384915 0.0032,-0.29365 -0.129721,0.325668 z"
             id="path1576"
             sodipodi:nodetypes="ccccc" />
        </g>
      </g>
      <path
         style="fill:none;stroke:#000000;stroke-width:0.239191;stroke-linecap:butt;stroke-linejoin:miter;stroke-miterlimit:4;stroke-dasharray:none;stroke-opacity:0.22363"
         d="m 103.30223,30.005974 c -0.18028,-0.171638 -0.36448,-0.347016 -0.90925,-0.60942 -0.54476,-0.262404 -1.45079,-0.609879 -2.18774,-0.776805 -0.736943,-0.166926 -1.303916,-0.15143 -1.669878,-0.07108 -0.365962,0.08035 -0.527399,0.225644 -0.770108,0.481589 -0.242709,0.255945 -0.566855,0.622778 -1.056732,0.771735 -0.489877,0.148957 -1.13821,0.08035 -1.61696,-0.12709 -0.478751,-0.207436 -0.776253,-0.553511 -1.276395,-0.747833 -0.500142,-0.194323 -1.22622,-0.248026 -2.160636,0.07246 -0.934415,0.320489 -2.253692,1.134205 -3.472765,1.311255 -1.219073,0.177051 -3.629551,-0.105597 -5.617928,-0.33875"
         id="path3539-2"
         inkscape:path-effect="#path-effect3560"
         inkscape:original-d="m 103.30223,30.005974 c -0.18037,-0.171541 -0.36458,-0.346916 -0.55261,-0.526126 -0.90219,-0.343635 -1.80822,-0.691109 -2.71808,-1.04242 -0.563135,0.01934 -1.130109,0.03482 -1.700917,0.04649 -0.157597,0.149129 -0.319035,0.294423 -0.484306,0.435876 -0.323366,0.366768 -0.647512,0.733601 -0.972438,1.100498 -0.65527,-0.069 -1.303603,-0.137615 -1.964558,-0.207905 -0.296478,-0.344947 -0.593981,-0.691022 -0.882876,-1.027021 -0.711447,-0.05226 -1.437524,-0.105969 -2.17828,-0.161112 -1.127773,0.696217 -2.447049,1.509934 -3.319195,2.047244 -1.566316,-0.183325 -5.965132,-0.699459 -5.965132,-0.699459"
         sodipodi:nodetypes="ccccccccccc" />
      <g
         id="g1198"
         transform="matrix(1.2542122,0.7269228,-0.7269228,1.2542122,29.527896,-77.011737)">
        <ellipse
           style="fill:#464a35;fill-opacity:0.283843;stroke:none;stroke-width:0;stroke-linecap:round;stroke-linejoin:bevel;stroke-opacity:0.521375"
           id="path1053-3"
           cx="78.805443"
           cy="49.024971"
           rx="3.0872085"
           ry="2.0303481"
           transform="matrix(0.99841402,-0.0562978,0.07811869,0.99694407,0,0)" />
        <ellipse
           style="fill:#dee0d4;fill-opacity:1;stroke:#000000;stroke-width:0.1;stroke-linecap:round;stroke-linejoin:bevel;stroke-miterlimit:4;stroke-dasharray:none;stroke-opacity:0.369026"
           id="path1053"
           cx="82.494987"
           cy="44.562386"
           rx="3.0773869"
           ry="1.2044971" />
        <path
           style="fill:#dee0d4;fill-opacity:1;stroke:none;stroke-width:0.260881px;stroke-linecap:butt;stroke-linejoin:miter;stroke-opacity:1"
           d="m 79.528689,44.560718 0.215492,-5.789328 h 5.532524 l 0.21765,5.846488 z"
           id="path1074" />
        <ellipse
           style="fill:#a16f59;fill-opacity:1;stroke:none;stroke-width:0;stroke-linecap:round;stroke-linejoin:bevel;stroke-opacity:0.521375"
           id="path1053-5"
           cx="82.513885"
           cy="38.836128"
           rx="2.7489672"
           ry="1.0759528" />
        <path
           style="fill:url(#linearGradient1182);fill-opacity:1;stroke:none;stroke-width:0.264583px;stroke-linecap:butt;stroke-linejoin:miter;stroke-opacity:1;filter:url(#filter1430)"
           d="m 79.872196,38.885644 c 0,0 -0.234933,-1.84642 0.09465,-2.5504 0.161705,-0.3454 0.88772,-0.315273 0.915662,-0.68601 0.02794,-0.370737 0.386304,-0.551296 0.586566,-0.673877 0.202676,-0.124057 0.407551,0.371516 0.462022,0.270013 0.169269,-0.315426 0.304455,-0.21595 0.63999,-0.404076 0.636206,-0.356705 0.403837,0.603663 0.659746,0.596365 0.295536,-0.0084 0.428476,-0.72678 0.724131,-0.727401 0.270642,-5.68e-4 0.461864,0.835251 0.833464,0.767635 0.350771,-0.06383 0.340723,-0.405076 0.441822,-0.645385 0.159344,-0.378755 0.954087,-0.439702 0.653696,0.622396 -0.140969,0.498428 -0.433601,0.04267 -0.400198,0.724051 0.794024,0.605288 -0.743968,0.481609 -0.445347,1.130453 0.298621,0.648843 -0.02614,0.82841 0.07104,1.22609 0.05825,0.238353 0.02158,0.398883 -0.08668,0.54939 -0.208107,0.289331 -0.640762,0.377879 -0.948281,0.493919 -0.538859,0.203336 -1.155425,0.229106 -1.730915,0.20616 -0.639683,-0.0255 -1.412799,-0.105175 -1.890602,-0.408759 -0.214611,-0.136359 -0.580767,-0.490564 -0.580766,-0.490564 z"
           id="path1174"
           sodipodi:nodetypes="cszssssssssczsasssc" />
        <path
           style="fill:none;stroke:#a16f59;stroke-width:0.265;stroke-linecap:butt;stroke-linejoin:miter;stroke-miterlimit:4;stroke-dasharray:none;stroke-opacity:1"
           d="m 84.853888,40.152305 c 1.507647,-0.14149 2.093454,0.558196 2.10648,1.973382 -0.16569,1.91065 -1.990149,1.726518 -1.990149,1.726518"
           id="path1186"
           sodipodi:nodetypes="ccc" />
      </g>
      <g
         id="g3603"
         transform="matrix(1.446399,-0.0969272,0.0969272,1.446399,-43.36947,-25.915549)"
         style="stroke:none">
        <path
           id="path1726-8"
           style="fill:#000000;fill-opacity:0.181676;stroke:none;stroke-width:0.193327;stroke-linecap:square;stroke-linejoin:bevel;stroke-miterlimit:4;stroke-dasharray:none;stroke-opacity:0.300356"
           d="m 82.795716,43.138781 a 3.1090335,0.89034241 0 0 0 -3.027206,0.890384 3.1090335,0.89034241 0 0 0 0.01912,0.0987 l -6.767547,-0.0021 -0.310576,0.6227 h 8.337995 a 3.1090335,0.89034241 0 0 0 1.829861,0.170532 3.1090335,0.89034241 0 0 0 1.830895,-0.170532 h 8.010882 l -0.337965,-0.6165 -6.415111,-0.0021 a 3.1090335,0.89034241 0 0 0 0.02015,-0.100769 3.1090335,0.89034241 0 0 0 -3.108854,-0.890384 3.1090335,0.89034241 0 0 0 -0.08165,0 z" />
        <ellipse
           style="fill:#2e2323;fill-opacity:1;stroke:#241b1b;stroke-width:0.1;stroke-linecap:round;stroke-linejoin:round;stroke-miterlimit:4;stroke-dasharray:none;stroke-opacity:1;paint-order:fill markers stroke"
           id="path1726"
           cx="82.911728"
           cy="43.914131"
           rx="3.1090336"
           ry="0.89034241" />
        <ellipse
           style="fill:#2d2d2d;fill-opacity:1;stroke:none;stroke-width:0.12;stroke-linecap:square;stroke-linejoin:bevel;stroke-miterlimit:4;stroke-dasharray:none;stroke-opacity:1"
           id="path2531"
           cx="82.891579"
           cy="43.499401"
           rx="0.68970317"
           ry="0.17880318" />
        <path
           id="rect1728"
           style="fill:#2d2d2d;fill-opacity:1;stroke:none;stroke-width:0.190116;stroke-linecap:square;stroke-linejoin:bevel;stroke-miterlimit:4;stroke-dasharray:none;stroke-opacity:0.300356"
           d="m 82.586446,40.491981 0.686327,-0.0065 0.178677,3.01266 -1.104589,-0.0101 z"
           sodipodi:nodetypes="ccccc" />
        <path
           id="rect1731"
           style="fill:#343434;fill-opacity:1;stroke:#191515;stroke-width:0.01;stroke-linecap:square;stroke-linejoin:bevel;stroke-miterlimit:4;stroke-dasharray:none;stroke-opacity:1"
           d="m 72.675163,34.345621 20.166851,0.06903 0.352196,6.961052 H 72.351738 Z"
           sodipodi:nodetypes="ccccc" />
        <path
           id="rect1731-7"
           style="fill:#272727;fill-opacity:1;stroke:#130f0f;stroke-width:0.038;stroke-linecap:square;stroke-linejoin:bevel;stroke-miterlimit:4;stroke-dasharray:none;stroke-opacity:0.551734"
           d="m 73.219388,34.894928 19.194419,0.05843 0.335214,5.89173 H 72.911558 Z"
           sodipodi:nodetypes="ccccc" />
      </g>
      <path
         id="path2603-0"
         style="fill:#000000;fill-opacity:0.175995;stroke:none;stroke-width:0.0289929;stroke-linecap:square;stroke-linejoin:bevel;stroke-miterlimit:4;stroke-dasharray:none;stroke-opacity:1"
         d="m 91.318769,33.632165 c 0.273689,0.882708 0.0857,1.166691 -0.605341,1.28477 -1.014493,0.173349 -1.658242,-0.817572 -1.724031,-1.564422 -0.09952,-1.129729 -0.571669,-1.766405 0.405511,-1.864844 0.977181,-0.09845 1.534429,0.888515 1.923855,2.144496 z"
         sodipodi:nodetypes="ssssss" />
      <g
         id="g3595"
         transform="matrix(1.4303133,-0.23594238,0.23594238,1.4303133,-49.378137,-13.243507)">
        <path
           id="path2603"
           style="fill:#2e2323;fill-opacity:1;stroke:#8f2a2a;stroke-width:0.02;stroke-linecap:square;stroke-linejoin:bevel;stroke-miterlimit:4;stroke-dasharray:none;stroke-opacity:1"
           d="m 90.630719,47.439609 c 0.188798,0.608914 0.05912,0.804813 -0.417579,0.886267 -0.699823,0.11958 -1.143897,-0.563982 -1.18928,-1.079178 -0.06865,-0.779315 -0.394351,-1.21851 0.279732,-1.286416 0.674084,-0.06791 1.058487,0.61292 1.327123,1.479327 z"
           sodipodi:nodetypes="ssssss" />
        <rect
           style="fill:#189d79;fill-opacity:1;stroke:none;stroke-width:0.00671466;stroke-linecap:square;stroke-linejoin:bevel;stroke-miterlimit:4;stroke-dasharray:none;stroke-opacity:1"
           id="rect2606"
           width="0.14723496"
           height="0.38661119"
           x="67.343102"
           y="74.693619"
           ry="0.073617481"
           transform="rotate(-20.671205)" />
      </g>
      <g
         id="g3591"
         transform="matrix(1.4379409,-0.0970789,0.09700514,1.4341963,-43.350133,-26.186474)">
        <g
           id="g3585">
          <path
             id="rect2940"
             style="fill:#3b3b3b;fill-opacity:1;stroke:none;stroke-width:0.018656;stroke-linecap:square;stroke-linejoin:bevel;stroke-miterlimit:4;stroke-dasharray:none;stroke-opacity:1"
             d="m 73.972542,46.048589 12.891942,-0.05519 1.66169,3.057785 H 72.024936 Z"
             sodipodi:nodetypes="ccccc" />
          <path
             id="path40"
             style="fill:#272727;fill-opacity:1;fill-rule:evenodd;stroke:none;stroke-width:0.0031872;stroke-opacity:1"
             d="m 73.960433,46.037212 -1.9476,3.0026 h 16.5013 l -1.6617,-3.0578 z m 0.4437,0.2339 0.5753,-0.0023 c 0.0341,-10e-5 0.0512,0.0181 0.0393,0.0403 l -0.174,0.3236 c -0.0127,0.0236 -0.0511,0.0433 -0.0865,0.0435 l -0.5963,0.002 c -0.0354,10e-5 -0.0527,-0.0194 -0.0385,-0.043 l 0.1941,-0.3234 c 0.0133,-0.0222 0.0524,-0.0406 0.0866,-0.0407 z m 0.9339,-0.0037 0.5768,-0.0022 c 0.0343,-2e-4 0.0541,0.018 0.0441,0.0402 l -0.1468,0.324 c -0.0107,0.0236 -0.0488,0.0434 -0.0843,0.0435 l -0.5979,0.002 c -0.0353,1e-4 -0.0546,-0.0194 -0.0423,-0.043 l 0.1671,-0.3237 c 0.0114,-0.0222 0.0492,-0.0406 0.0833,-0.0408 z m 0.9377,-0.0037 0.5771,-0.0022 c 0.0343,-2e-4 0.0559,0.018 0.0477,0.0403 l -0.1194,0.3242 c -0.0088,0.0237 -0.0454,0.0435 -0.081,0.0436 l -0.5982,0.002 c -0.0355,10e-5 -0.0565,-0.0194 -0.0463,-0.0431 l 0.1399,-0.324 c 0.0096,-0.0222 0.046,-0.0406 0.0802,-0.0408 z m 0.9388,-0.0037 0.5789,-0.0023 c 0.0355,-10e-5 0.0574,0.0182 0.0511,0.0404 l -0.0921,0.3246 c -0.0067,0.0237 -0.0404,0.0435 -0.0772,0.0436 l -0.6001,0.0021 c -0.0357,1e-4 -0.0581,-0.0195 -0.0499,-0.0432 l 0.1126,-0.3244 c 0.0077,-0.0222 0.0423,-0.0406 0.0767,-0.0408 z m 0.9415,-0.0037 0.5815,-0.0023 c 0.0346,-1e-4 0.0593,0.0181 0.0549,0.0404 l -0.0644,0.325 c -0.0047,0.0237 -0.0381,0.0435 -0.0738,0.0436 l -0.603,0.0021 c -0.0357,10e-5 -0.06,-0.0195 -0.0538,-0.0432 l 0.0851,-0.3247 c 0.0058,-0.0223 0.0391,-0.0408 0.0735,-0.0409 z m 0.9451,-0.0037 0.5819,-0.0023 c 0.0346,-2e-4 0.061,0.0181 0.0585,0.0404 l -0.0367,0.3253 c -0.0026,0.0238 -0.0344,0.0436 -0.0702,0.0437 l -0.6034,0.0021 c -0.0358,1e-4 -0.0619,-0.0195 -0.0577,-0.0433 l 0.0574,-0.325 c 0.004,-0.0223 0.0357,-0.0408 0.0702,-0.0409 z m 0.9466,-0.0038 0.5834,-0.0023 c 0.0359,-1e-4 0.0628,0.0182 0.0622,0.0405 l -0.0087,0.3257 c -7e-4,0.0238 -0.0297,0.0436 -0.0669,0.0437 l -0.605,0.0021 c -0.036,10e-5 -0.0637,-0.0195 -0.0615,-0.0433 l 0.0296,-0.3254 c 0.002,-0.0223 0.0322,-0.0408 0.0669,-0.041 z m 0.9488,-0.0037 0.5865,-0.0023 c 0.0346,-1e-4 0.0645,0.0182 0.0658,0.0405 l 0.0193,0.326 c 0.0014,0.0238 -0.0272,0.0437 -0.0631,0.0438 l -0.6083,0.0021 c -0.0359,1e-4 -0.0654,-0.0196 -0.0652,-0.0434 l 0.0017,-0.3257 c 1e-4,-0.0223 0.0288,-0.0409 0.0633,-0.041 z m 0.953,-0.0038 0.5865,-0.0023 c 0.035,-1e-4 0.0664,0.0182 0.0696,0.0406 l 0.0475,0.3263 c 0.0035,0.0239 -0.0234,0.0438 -0.0597,0.0439 l -0.6083,0.002 c -0.0375,2e-4 -0.0675,-0.0195 -0.0694,-0.0434 l -0.0264,-0.326 c -0.0018,-0.0224 0.0241,-0.0409 0.0602,-0.0411 z m 0.9542,-0.0037 0.5881,-0.0023 c 0.0362,-2e-4 0.0682,0.0182 0.0734,0.0406 l 0.0759,0.3266 c 0.0055,0.0239 -0.0186,0.0438 -0.0561,0.0439 l -0.6102,0.0021 c -0.0361,1e-4 -0.0694,-0.0196 -0.0734,-0.0434 l -0.0546,-0.3265 c -0.0038,-0.0223 0.022,-0.0409 0.0569,-0.041 z m 0.9566,-0.0038 0.5911,-0.0023 c 0.0351,-2e-4 0.0697,0.0182 0.0768,0.0406 l 0.1045,0.327 c 0.0076,0.0239 -0.0158,0.0439 -0.0522,0.044 l -0.6132,0.0021 c -0.0362,10e-5 -0.0712,-0.0196 -0.0773,-0.0435 l -0.083,-0.3268 c -0.0057,-0.0224 0.0185,-0.041 0.0533,-0.0411 z m 0.9606,-0.0038 0.5913,-0.0023 c 0.035,-2e-4 0.0717,0.0182 0.0808,0.0407 l 0.1331,0.3273 c 0.0098,0.0239 -0.0125,0.0439 -0.0488,0.044 l -0.6134,0.0021 c -0.0375,10e-5 -0.0734,-0.0196 -0.0816,-0.0435 l -0.1116,-0.3271 c -0.0077,-0.0224 0.0141,-0.041 0.0502,-0.0412 z m 0.9618,-0.0038 0.5931,-0.0023 c 0.0351,-2e-4 0.0734,0.0183 0.0845,0.0407 l 0.1619,0.3277 c 0.0119,0.024 -0.0086,0.0439 -0.045,0.0441 l -0.6154,0.002 c -0.0364,2e-4 -0.0751,-0.0196 -0.0853,-0.0435 l -0.1404,-0.3275 c -0.0096,-0.0224 0.0116,-0.041 0.0466,-0.0412 z m -11.7098,0.6179 1.1193,-0.0035 c 0.0358,-1e-4 0.0556,0.02 0.0435,0.0446 l -0.1768,0.3589 c -0.0129,0.0263 -0.0545,0.0481 -0.0916,0.0482 l -1.1623,0.0029 c -0.0385,1e-4 -0.0548,-0.0215 -0.0391,-0.0478 l 0.2149,-0.3583 c 0.0147,-0.0246 0.0551,-0.0449 0.0921,-0.045 z m 1.4658,-0.0046 0.6063,-0.0019 c 0.036,-1e-4 0.0574,0.0201 0.0473,0.0447 l -0.1476,0.3593 c -0.0108,0.0263 -0.0506,0.0481 -0.0879,0.0482 l -0.6297,0.0016 c -0.0372,10e-5 -0.0578,-0.0216 -0.0454,-0.0478 l 0.1702,-0.359 c 0.0117,-0.0246 0.051,-0.045 0.0868,-0.0451 z m 0.986,-0.0031 0.6092,-0.0019 c 0.0362,-10e-5 0.0595,0.0201 0.0514,0.0447 l -0.1172,0.3598 c -0.0085,0.0263 -0.0467,0.0482 -0.0842,0.0483 l -0.6328,0.0015 c -0.0373,1e-4 -0.0598,-0.0215 -0.0496,-0.0478 l 0.14,-0.3595 c 0.0096,-0.0246 0.0473,-0.0449 0.0832,-0.0451 z m 0.9891,-0.003 0.6106,-0.002 c 0.0361,-1e-4 0.0613,0.0201 0.0554,0.0448 l -0.0868,0.3602 c -0.0063,0.0263 -0.0428,0.0482 -0.0803,0.0483 l -0.6343,0.0016 c -0.0378,10e-5 -0.0609,-0.0216 -0.0529,-0.048 l 0.1096,-0.3598 c 0.0075,-0.0247 0.0423,-0.045 0.0787,-0.0451 z m 0.9926,-0.0032 0.6113,-0.0019 c 0.0363,-10e-5 0.0632,0.0201 0.0593,0.0448 l -0.056,0.3606 c -0.0041,0.0264 -0.0387,0.0483 -0.0765,0.0484 l -0.635,0.0016 c -0.0375,10e-5 -0.0639,-0.0216 -0.0581,-0.048 l 0.079,-0.3603 c 0.0054,-0.0247 0.0399,-0.045 0.076,-0.0452 z m 0.9943,-0.0031 0.6144,-0.0019 c 0.0363,-1e-4 0.0637,0.0201 0.062,0.0449 l -0.0252,0.361 c -0.0018,0.0264 -0.0333,0.0484 -0.0711,0.0485 l -0.6383,0.0016 c -0.0377,0 -0.0658,-0.0217 -0.0623,-0.0481 l 0.0483,-0.3607 c 0.0033,-0.0248 0.036,-0.0452 0.0722,-0.0453 z m 0.9973,-0.0031 0.616,-0.0019 c 0.0365,-10e-5 0.067,0.0201 0.0674,0.0449 l 0.0059,0.3615 c 4e-4,0.0264 -0.0306,0.0484 -0.0686,0.0485 l -0.64,0.0016 c -0.0379,10e-5 -0.0682,-0.0217 -0.0669,-0.0482 l 0.0174,-0.3611 c 0.0012,-0.0248 0.0323,-0.0452 0.0688,-0.0453 z m 1.0012,-0.0031 0.6164,-0.002 c 0.0367,-10e-5 0.069,0.0202 0.0715,0.045 l 0.0371,0.3619 c 0.0027,0.0265 -0.0264,0.0485 -0.0645,0.0486 l -0.6406,0.0016 c -0.0381,10e-5 -0.0702,-0.0217 -0.0712,-0.0482 l -0.0137,-0.3616 c -9e-4,-0.0248 0.0284,-0.0452 0.065,-0.0453 z m 1.0027,-0.0032 0.6196,-0.0019 c 0.0367,-1e-4 0.0697,0.0202 0.0744,0.045 l 0.0684,0.3624 c 0.005,0.0265 -0.0211,0.0485 -0.0593,0.0486 l -0.6438,0.0016 c -0.0382,10e-5 -0.0722,-0.0218 -0.0755,-0.0483 l -0.045,-0.362 c -0.0031,-0.0248 0.0246,-0.0452 0.0612,-0.0454 z m 1.0057,-0.0031 0.6214,-0.002 c 0.0367,-1e-4 0.0728,0.0202 0.0796,0.0451 l 0.1001,0.3628 c 0.0073,0.0265 -0.0182,0.0486 -0.0564,0.0487 l -0.6459,0.0016 c -0.0381,1e-4 -0.0745,-0.0218 -0.0801,-0.0483 l -0.0764,-0.3625 c -0.0052,-0.0248 0.0211,-0.0453 0.0577,-0.0454 z m 1.0097,-0.0032 0.622,-0.0019 c 0.0369,-10e-5 0.0748,0.0202 0.0839,0.0451 l 0.1318,0.3632 c 0.0097,0.0266 -0.0141,0.0487 -0.0524,0.0488 l -0.6466,0.0016 c -0.0382,1e-4 -0.0765,-0.0218 -0.0844,-0.0484 l -0.108,-0.3629 c -0.0074,-0.0248 0.017,-0.0454 0.0537,-0.0455 z m 1.0281,-0.0032 1.114,-0.0035 c 0.037,-1e-4 0.0778,0.0203 0.0901,0.0452 l 0.1798,0.3639 c 0.0132,0.0266 -0.0079,0.0487 -0.0463,0.0488 l -1.1582,0.0029 c -0.0383,10e-5 -0.0789,-0.0218 -0.0892,-0.0484 l -0.1404,-0.3633 c -0.0096,-0.0249 0.0134,-0.0455 0.0502,-0.0456 z m -11.85,0.6715 1.4095,-0.0032 c 0.0378,0 0.0585,0.0224 0.0456,0.0498 l -0.1897,0.4002 c -0.0138,0.0293 -0.0581,0.0537 -0.0974,0.0537 l -1.4667,0.0022 c -0.0406,1e-4 -0.0571,-0.0241 -0.0396,-0.0533 l 0.2396,-0.3995 c 0.0163,-0.0273 0.0596,-0.0498 0.0987,-0.0499 z m 11.8135,-0.0263 1.4588,-0.0033 c 0.0391,0 0.0829,0.0228 0.0966,0.0505 l 0.2006,0.4064 c 0.0147,0.0298 -0.007,0.0545 -0.0477,0.0546 l -1.5201,0.0023 c -0.0407,0 -0.0829,-0.0245 -0.0937,-0.0542 l -0.1471,-0.4056 c -0.01,-0.0277 0.0136,-0.0506 0.0526,-0.0507 z m -10.0231,0.0288 0.6399,-0.0014 c 0.0381,-1e-4 0.0606,0.0225 0.0499,0.0499 l -0.1567,0.4013 c -0.0114,0.0293 -0.0535,0.0537 -0.0933,0.0538 l -0.666,10e-4 c -0.0395,0 -0.061,-0.0243 -0.0477,-0.0536 l 0.1819,-0.4008 c 0.0124,-0.0274 0.054,-0.0501 0.092,-0.0502 z m 1.0408,-0.0023 0.6432,-0.0014 c 0.0381,-1e-4 0.0627,0.0225 0.0543,0.05 l -0.1228,0.4018 c -0.009,0.0293 -0.0492,0.0538 -0.0889,0.0539 l -0.6695,10e-4 c -0.0394,0 -0.0632,-0.0243 -0.0523,-0.0537 l 0.1481,-0.4013 c 0.0102,-0.0275 0.05,-0.0502 0.0879,-0.0503 z m 1.0441,-0.0023 0.645,-0.0014 c 0.0381,-10e-5 0.0649,0.0225 0.0588,0.05 l -0.0887,0.4023 c -0.0064,0.0295 -0.0449,0.054 -0.0846,0.054 l -0.6715,10e-4 c -0.0397,1e-4 -0.0643,-0.0243 -0.0559,-0.0537 l 0.1142,-0.4019 c 0.0078,-0.0275 0.0445,-0.0502 0.0827,-0.0503 z m 1.0483,-0.0023 0.6456,-0.0014 c 0.0384,-10e-5 0.067,0.0225 0.0633,0.0501 l -0.0544,0.4028 c -0.0039,0.0295 -0.0403,0.054 -0.0802,0.0541 l -0.6722,0.001 c -0.0398,10e-5 -0.0679,-0.0244 -0.0621,-0.0538 l 0.0801,-0.4024 c 0.0055,-0.0276 0.0416,-0.0503 0.0799,-0.0504 z m 1.0502,-0.0023 0.6489,-0.0015 c 0.0384,-10e-5 0.0677,0.0226 0.0663,0.0502 l -0.0199,0.4034 c -0.0014,0.0295 -0.0343,0.0541 -0.0743,0.0541 l -0.6757,0.0011 c -0.0398,0 -0.0702,-0.0244 -0.0668,-0.0539 l 0.0457,-0.403 c 0.0031,-0.0276 0.0375,-0.0504 0.0758,-0.0504 z m 1.0532,-0.0024 0.6508,-0.0014 c 0.0386,-10e-5 0.0715,0.0226 0.0725,0.0502 l 0.0149,0.404 c 0.0011,0.0295 -0.0314,0.0541 -0.0716,0.0542 l -0.6777,10e-4 c -0.04,1e-4 -0.0725,-0.0244 -0.0716,-0.0539 l 0.0111,-0.4036 c 8e-4,-0.0276 0.0333,-0.0504 0.0716,-0.0505 z m 1.0579,-0.0023 0.6513,-0.0015 c 0.0386,-10e-5 0.0736,0.0227 0.077,0.0503 l 0.0498,0.4046 c 0.0036,0.0295 -0.0268,0.0542 -0.067,0.0542 l -0.6784,0.0011 c -0.0404,0 -0.075,-0.0245 -0.0767,-0.054 l -0.0237,-0.4042 c -0.0016,-0.0276 0.0289,-0.0504 0.0677,-0.0505 z m 1.0594,-0.0024 0.6548,-0.0014 c 0.0387,-10e-5 0.0744,0.0226 0.0802,0.0504 l 0.085,0.405 c 0.0062,0.0296 -0.0208,0.0543 -0.0612,0.0544 l -0.6821,0.001 c -0.0402,10e-5 -0.077,-0.0245 -0.0813,-0.0541 l -0.0586,-0.4046 c -0.004,-0.0277 0.0246,-0.0506 0.0632,-0.0507 z m 1.0627,-0.0023 1.2219,-0.0027 c 0.0391,-1e-4 0.0792,0.0227 0.0887,0.0504 l 0.1392,0.406 c 0.0102,0.0296 -0.015,0.0544 -0.0558,0.0544 l -1.2729,0.002 c -0.0404,0 -0.0794,-0.0246 -0.0862,-0.0542 l -0.0938,-0.4052 c -0.0065,-0.0277 0.0202,-0.0506 0.0589,-0.0507 z m -10.6282,0.725 0.6714,-8e-4 c 0.0398,0 0.0594,0.0252 0.043,0.0557 l -0.2408,0.4485 c -0.0176,0.0329 -0.0668,0.0602 -0.1083,0.0602 l -0.7002,3e-4 c -0.0431,0 -0.0596,-0.0272 -0.0399,-0.0601 l 0.2686,-0.448 c 0.0183,-0.0305 0.0649,-0.0557 0.1062,-0.0558 z m 1.0929,-0.0013 0.6733,-8e-4 c 0.0399,-1e-4 0.0617,0.0252 0.0479,0.0557 l -0.2032,0.4492 c -0.015,0.033 -0.0621,0.0603 -0.1037,0.0603 l -0.7022,3e-4 c -0.0416,0 -0.0622,-0.0272 -0.0452,-0.0602 l 0.2313,-0.4486 c 0.0157,-0.0306 0.062,-0.0558 0.1018,-0.0559 z m 1.0961,-0.0013 0.6756,-8e-4 c 0.0416,-1e-4 0.0642,0.0252 0.0529,0.0558 l -0.1655,0.4498 c -0.0122,0.0331 -0.0555,0.0604 -0.0989,0.0604 l -0.7048,3e-4 c -0.0418,0 -0.0645,-0.0273 -0.0502,-0.0603 l 0.1937,-0.4493 c 0.0132,-0.0305 0.0572,-0.0559 0.0972,-0.0559 z m 8.5813,-0.0104 0.695,-9e-4 c 0.0413,0 0.083,0.0255 0.0922,0.0565 l 0.1341,0.4552 c 0.0098,0.0334 -0.0177,0.0611 -0.0608,0.0611 l -0.7259,3e-4 c -0.0428,10e-5 -0.0846,-0.0276 -0.0922,-0.061 l -0.1044,-0.4547 c -0.0071,-0.0309 0.021,-0.0565 0.062,-0.0565 z m 1.8681,-0.0023 0.5815,-7e-4 c 0.0144,0 0.0309,0.0085 0.0354,0.019 l 0.0655,0.1537 c 0.0046,0.011 -0.0047,0.0198 -0.0192,0.0198 l -0.5903,5e-4 c -0.0142,0 -0.0291,-0.0087 -0.0332,-0.0196 l -0.0579,-0.1536 c -0.004,-0.0105 0.0042,-0.0191 0.0182,-0.0191 z m -9.4688,0.0257 7.1302,-0.0085 c 0.0424,-10e-5 0.0806,0.0256 0.0869,0.0565 l 0.0932,0.4555 c 0.0069,0.0335 -0.0219,0.0612 -0.0661,0.0613 l -7.4428,0.0029 c -0.0419,0 -0.0671,-0.0274 -0.0553,-0.0606 l 0.1603,-0.4509 c 0.0109,-0.0307 0.0534,-0.0561 0.0936,-0.0562 z m 8.7138,0.3125 0.5953,-4e-4 c 0.0146,0 0.0309,0.0089 0.035,0.0202 l 0.0577,0.1604 c 0.0041,0.0115 -0.0059,0.0208 -0.0207,0.0208 l -0.6044,2e-4 c -0.0148,0 -0.0296,-0.0092 -0.0332,-0.0206 l -0.0498,-0.1603 c -0.0035,-0.0113 0.0054,-0.0202 0.0201,-0.0203 z m 0.883,-6e-4 0.5968,-5e-4 c 0.0148,0 0.0318,0.009 0.0366,0.0203 l 0.0684,0.1606 c 0.0049,0.0115 -0.0045,0.0207 -0.0195,0.0208 l -0.6059,2e-4 c -0.0146,0 -0.0299,-0.0092 -0.0343,-0.0207 l -0.0605,-0.1604 c -0.0043,-0.0113 0.004,-0.0203 0.0184,-0.0203 z m 0.884,-7e-4 0.5983,-4e-4 c 0.0144,0 0.0306,0.009 0.0362,0.0203 l 0.0792,0.1608 c 0.0057,0.0115 -0.0017,0.0207 -0.0164,0.0207 l -0.6074,3e-4 c -0.0151,0 -0.0327,-0.0092 -0.0378,-0.0207 l -0.0713,-0.1607 c -0.005,-0.0113 0.0044,-0.0203 0.0192,-0.0203 z" />
        </g>
        <path
           style="color:#000000;font-style:normal;font-variant:normal;font-weight:normal;font-stretch:normal;font-size:medium;line-height:normal;font-family:sans-serif;font-variant-ligatures:normal;font-variant-position:normal;font-variant-caps:normal;font-variant-numeric:normal;font-variant-alternates:normal;font-variant-east-asian:normal;font-feature-settings:normal;font-variation-settings:normal;text-indent:0;text-align:start;text-decoration:none;text-decoration-line:none;text-decoration-style:solid;text-decoration-color:#000000;letter-spacing:normal;word-spacing:normal;text-transform:none;writing-mode:lr-tb;direction:ltr;text-orientation:mixed;dominant-baseline:auto;baseline-shift:baseline;text-anchor:start;white-space:normal;shape-padding:0;shape-margin:0;inline-size:0;clip-rule:nonzero;display:inline;overflow:visible;visibility:visible;opacity:1;isolation:auto;mix-blend-mode:normal;color-interpolation:sRGB;color-interpolation-filters:linearRGB;solid-color:#000000;solid-opacity:1;vector-effect:none;fill:#000000;fill-opacity:1;fill-rule:nonzero;stroke:none;stroke-width:0.264583px;stroke-linecap:butt;stroke-linejoin:miter;stroke-miterlimit:4;stroke-dasharray:none;stroke-dashoffset:0;stroke-opacity:1;color-rendering:auto;image-rendering:auto;shape-rendering:auto;text-rendering:auto;enable-background:accumulate;stop-color:#000000;stop-opacity:1"
           d="m 88.51605,49.036011 -16.499116,-0.01314 0.01256,0.143782 16.482931,-0.0075 z"
           id="path3537"
           sodipodi:nodetypes="ccccc" />
      </g>
      <text
         xml:space="preserve"
         style="font-size:0.355145px;line-height:1.35;font-family:sans-serif;letter-spacing:0.0290332px;word-spacing:0px;stroke-width:0.0266359"
         x="90.344856"
         y="31.743782"
         id="text3571"
         transform="rotate(-4.3494951)"><tspan
           sodipodi:role="line"
           id="tspan3569"
           x="90.344856"
           y="31.743782"
           style="font-style:normal;font-variant:normal;font-weight:normal;font-stretch:normal;font-family:'URW Gothic';-inkscape-font-specification:'URW Gothic';fill:#ffffff;fill-opacity:1;stroke-width:0.0266359">satyam</tspan></text>
    </g>
    <path
       sodipodi:type="star"
       style="fill:#ff7e3a;fill-opacity:0.313185;stroke:none;stroke-width:0;stroke-linecap:round;stroke-linejoin:bevel;stroke-opacity:0.521375"
       id="path920"
       sodipodi:sides="3"
       sodipodi:cx="178.77701"
       sodipodi:cy="123.98804"
       sodipodi:r1="2.2777033"
       sodipodi:r2="1.1388516"
       sodipodi:arg1="-2.1776328"
       sodipodi:arg2="-1.1304353"
       inkscape:flatsided="true"
       inkscape:rounded="0"
       inkscape:randomized="0"
       d="m 177.4781,122.117 3.56873,1.68167 -3.24073,2.24977 z"
       inkscape:transform-center-x="-0.4854516"
       inkscape:transform-center-y="0.094684448" />
  </g>
</svg>
