<?xml version="1.0" encoding="UTF-8" standalone="no"?>
<svg
   xmlns:dc="http://purl.org/dc/elements/1.1/"
   xmlns:cc="http://creativecommons.org/ns#"
   xmlns:rdf="http://www.w3.org/1999/02/22-rdf-syntax-ns#"
   xmlns:svg="http://www.w3.org/2000/svg"
   xmlns="http://www.w3.org/2000/svg"
   xmlns:sodipodi="http://sodipodi.sourceforge.net/DTD/sodipodi-0.dtd"
   xmlns:inkscape="http://www.inkscape.org/namespaces/inkscape"
   width="1936.0393"
   height="519.72266"
   viewBox="0 0 512.24373 137.50996"
   version="1.1"
   id="svg8"
   sodipodi:docname="footer.svg"
   inkscape:version="1.0.1 (3bc2e813f5, 2020-09-07)">
  <defs
     id="defs2">
    <inkscape:perspective
       sodipodi:type="inkscape:persp3d"
       inkscape:vp_x="42.786771 : 114.2457 : 1"
       inkscape:vp_y="121.86934 : 992.54621 : 0"
       inkscape:vp_z="510.79606 : 217.89896 : 1"
       inkscape:persp3d-origin="375.60083 : 130.96109 : 1"
       id="perspective835" />
    <clipPath
       clipPathUnits="userSpaceOnUse"
       id="clipPath901">
      <rect
         style="fill:#304b5e;fill-opacity:1;stroke-width:0.106019;stroke-linecap:round;stroke-linejoin:round;paint-order:fill markers stroke"
         id="rect903"
         width="509.10703"
         height="285.82434"
         x="0.18927753"
         y="-0.10890447" />
    </clipPath>
  </defs>
  <sodipodi:namedview
     id="base"
     pagecolor="#ffffff"
     bordercolor="#666666"
     borderopacity="1.0"
     inkscape:pageopacity="0.0"
     inkscape:pageshadow="2"
     inkscape:zoom="0.45254834"
     inkscape:cx="1061.8632"
     inkscape:cy="-52.967452"
     inkscape:document-units="mm"
     inkscape:current-layer="layer1"
     inkscape:document-rotation="0"
     showgrid="false"
     width="1920mm"
     units="px"
     inkscape:window-width="1920"
     inkscape:window-height="1050"
     inkscape:window-x="0"
     inkscape:window-y="0"
     inkscape:window-maximized="1"
     showguides="true"
     inkscape:guide-bbox="true"
     fit-margin-top="0"
     fit-margin-left="0"
     fit-margin-right="0"
     fit-margin-bottom="0" />
  <metadata
     id="metadata5">
    <rdf:RDF>
      <cc:Work
         rdf:about="">
        <dc:format>image/svg+xml</dc:format>
        <dc:type
           rdf:resource="http://purl.org/dc/dcmitype/StillImage" />
        <dc:title></dc:title>
      </cc:Work>
    </rdf:RDF>
  </metadata>
  <g
     inkscape:label="Layer 1"
     inkscape:groupmode="layer"
     id="layer1"
     transform="translate(0.78165641,-149.13797)">
    <path
       style="fill:#000000;fill-opacity:0.348839;stroke:#ffffff;stroke-width:1.92893;stroke-linecap:butt;stroke-linejoin:miter;stroke-miterlimit:4;stroke-dasharray:none;stroke-opacity:1"
       d="m 516.88139,152.6172 c 0,0 -21.047,35.92628 -37.47781,36.12026 -6.64523,0.0784 -10.32028,-11.29583 -16.93708,-10.66806 -9.18191,0.87113 -9.7572,18.15011 -20.38865,18.96786 -6.03176,0.46395 -5.60494,-14.2673 -11.65205,-14.11121 -6.35862,0.16414 -5.37141,13.69644 -11.49234,15.45102 -16.94316,4.85678 -32.57531,-25.50302 -49.17648,-19.55408 -9.77243,3.50189 -5.03285,27.1755 -15.39485,27.40077 -37.47122,0.81464 -19.81588,18.47957 -26.61085,25.00671 -5.06916,4.06585 -17.70393,-13.52343 -24.15187,-13.96407 -13.94249,-1.91961 -12.24283,19.20051 -23.02995,17.45761 -9.22313,-1.93039 -15.65946,-22.82837 -24.95105,-21.27193 -10.68903,1.79051 -2.79855,26.20753 -12.86306,30.2745 -8.96794,3.62384 -16.99133,-12.4217 -26.60999,-11.5916 -7.67728,0.66256 -4.67523,10.81143 -19.39281,12.75864 -12.20361,1.6146 -22.4184,-14.8853 -34.59591,-13.07934 -5.38343,0.79837 -7.88611,7.60455 -11.94325,8.75234 -7.24761,2.05042 -14.94099,-3.00054 -22.44464,-2.43602 -5.88472,0.44274 -11.24026,4.18474 -17.1317,4.52361 -10.4136,0.59898 -21.306959,-0.51161 -30.978803,-4.47223 -11.509623,-4.7132 -17.913564,-24.0895 -30.174671,-22.13086 -8.659514,1.38332 -7.046983,19.1521 -15.543124,21.5174 -0.111714,0.0311 -0.223678,0.0593 -0.335881,0.0845 -14.873636,3.34252 -40.2376241,-21.98228 -40.2376241,-21.98228 l 1.2624604,75.70172 H 517.4655 Z"
       id="path976"
       sodipodi:nodetypes="csassssscccsssssssssssscccc" />
    <text
       xml:space="preserve"
       style="font-size:16.9333px;line-height:1.25;font-family:sans-serif;letter-spacing:0px;word-spacing:0px;white-space:pre;inline-size:152.033;fill:#000000;fill-opacity:1;stroke-width:0.264583"
       x="156.86406"
       y="91.779175"
       id="text980" />
  </g>
</svg>
