<?xml version="1.0" encoding="UTF-8" standalone="no"?>
<svg
   xmlns:dc="http://purl.org/dc/elements/1.1/"
   xmlns:cc="http://creativecommons.org/ns#"
   xmlns:rdf="http://www.w3.org/1999/02/22-rdf-syntax-ns#"
   xmlns:svg="http://www.w3.org/2000/svg"
   xmlns="http://www.w3.org/2000/svg"
   xmlns:sodipodi="http://sodipodi.sourceforge.net/DTD/sodipodi-0.dtd"
   xmlns:inkscape="http://www.inkscape.org/namespaces/inkscape"
   version="1.1"
   id="svg2"
   xml:space="preserve"
   width="100"
   height="100"
   viewBox="0 0 99.999999 100"
   sodipodi:docname="protonmail-sign-white.svg"
   inkscape:version="1.0.1 (3bc2e813f5, 2020-09-07)"><metadata
     id="metadata8"><rdf:RDF><cc:Work
         rdf:about=""><dc:format>image/svg+xml</dc:format><dc:type
           rdf:resource="http://purl.org/dc/dcmitype/StillImage" /><dc:title /></cc:Work></rdf:RDF></metadata><defs
     id="defs6" /><sodipodi:namedview
     pagecolor="#ffffff"
     bordercolor="#666666"
     borderopacity="1"
     objecttolerance="10"
     gridtolerance="10"
     guidetolerance="10"
     inkscape:pageopacity="0"
     inkscape:pageshadow="2"
     inkscape:window-width="1920"
     inkscape:window-height="1050"
     id="namedview4"
     showgrid="false"
     inkscape:pagecheckerboard="true"
     inkscape:snap-nodes="false"
     showguides="true"
     inkscape:guide-bbox="true"
     inkscape:zoom="7.0169836"
     inkscape:cx="5.3894854"
     inkscape:cy="54.074669"
     inkscape:window-x="0"
     inkscape:window-y="0"
     inkscape:window-maximized="1"
     inkscape:current-layer="g10"
     inkscape:document-rotation="0" /><g
     id="g10"
     inkscape:groupmode="layer"
     inkscape:label="ink_ext_XXXXXX"
     transform="matrix(1.3333333,0,0,-1.3333333,0,84.546667)"><path
       id="path841"
       style="fill:#ffffff;fill-opacity:1;stroke:none;stroke-width:8.70255;stroke-linecap:round;stroke-linejoin:round;stroke-miterlimit:4;stroke-dasharray:none;paint-order:fill markers stroke"
       d="M 49.740234,0.55664062 C 22.496804,0.70235729 0.48853727,22.828447 0.48828125,50.072266 0.48785101,77.419485 22.656687,99.589195 50.003906,99.589844 77.351887,99.590274 99.521914,77.420247 99.521484,50.072266 99.520836,22.725047 77.351125,0.55621038 50.003906,0.55664062 c -0.08789,-2.34e-4 -0.175781,-2.34e-4 -0.263672,0 z M 49.636719,17.796875 c 9.667837,1.91e-4 23.511719,6.773459 23.511719,16.982422 v 12.726562 c -10e-7,0 -0.1648,1.577621 -4.597657,4.779297 C 64.117924,55.48652 52.641064,64.5 49.636719,64.5 46.631957,64.5 35.155503,55.48652 30.722656,52.285156 26.289816,49.08348 26.123047,47.505859 26.123047,47.505859 V 34.779297 c 0,-10.744004 13.845308,-16.982613 23.513672,-16.982422 z m 0,10.097656 c 0,0 -10.640782,0.147013 -13.34961,10.884766 v 8.029297 H 62.984375 V 38.779297 C 60.275504,28.041544 49.636719,27.894531 49.636719,27.894531 Z M 26.123047,52.974609 c 0,0 15.762838,11.262512 18.126953,12.904297 2.364635,1.641751 5.386719,1.9375 5.386719,1.9375 0,0 3.020652,-0.295749 5.384765,-1.9375 2.364636,-1.641785 18.126954,-12.904297 18.126954,-12.904297 v 22.294922 c 0,0 -0.146682,2.870879 -2.990235,2.59375 H 49.636719 29.113281 c -2.857006,0 -2.990234,-2.59375 -2.990234,-2.59375 z"
       transform="matrix(0.75000002,0,0,-0.75000002,0,63.410002)"
       sodipodi:nodetypes="ccccccssccsccssccccccccccccscscc" /></g></svg>
